<svg data-v-fde0c5aa="" xmlns="http://www.w3.org/2000/svg" viewBox="0 0 300 300" class="iconLeft"><!----><defs data-v-fde0c5aa=""><!----></defs><rect data-v-fde0c5aa="" fill="#E9F5E7" x="0" y="0" width="300px" height="300px" class="logo-background-square"></rect><defs data-v-fde0c5aa=""><!----></defs><g data-v-fde0c5aa="" id="05148b18-e05e-4987-ad2f-bccad8078bcb" fill="#0C3507"><path d=""></path></g><defs data-v-fde0c5aa=""><linearGradient data-v-fde0c5aa="" gradientTransform="rotate(25)" id="6e920d7f-ef32-4544-993a-a4ad55c051a0" x1="0%" y1="0%" x2="100%" y2="0%"><stop data-v-fde0c5aa="" offset="0%" stop-color="#5A5A2D" stop-opacity="1"></stop><stop data-v-fde0c5aa="" offset="100%" stop-color="#0DE30D" stop-opacity="1"></stop></linearGradient></defs><g data-v-fde0c5aa="" id="e38a4e06-1386-4e3f-95df-3671d991c92d" stroke="none" fill="url(#6e920d7f-ef32-4544-993a-a4ad55c051a0)"><path d="M4.029 14.362L14.362 4.028l.707.707L4.736 15.07zM17.135 27.47L27.47 17.135l.707.707-10.333 10.333zM4.029 17.841l.707-.707 10.333 10.334-.707.707zM17.135 4.735l.708-.707L28.176 14.36l-.707.707z"></path><g><path d="M16 1.414l1.683 1.683L16 4.779l-1.683-1.683L16 1.414M16 0l-3.097 3.097L16 6.194l3.097-3.097L16 0zM16 27.221l1.683 1.683L16 30.586l-1.683-1.683L16 27.221m0-1.415l-3.097 3.097L16 32l3.097-3.097L16 25.806zM3.097 14.317L4.779 16l-1.683 1.683L1.414 16l1.683-1.683m0-1.414L0 16l3.097 3.097L6.194 16l-3.097-3.097zM28.903 14.317L30.586 16l-1.683 1.683L27.221 16l1.682-1.683m0-1.414L25.806 16l3.097 3.097L32 16l-3.097-3.097z"></path></g></g><!----></svg>