<svg data-v-fde0c5aa="" xmlns="http://www.w3.org/2000/svg" viewBox="0 0 300 300" class="iconAboveSlogan"><!----><defs data-v-fde0c5aa=""><!----></defs><rect data-v-fde0c5aa="" fill="#E9F5E7" x="0" y="0" width="300px" height="300px" class="logo-background-square"></rect><defs data-v-fde0c5aa=""><!----></defs><g data-v-fde0c5aa="" id="27c239a3-e5ce-45e1-9a56-6fcd5bc8cf76" fill="#0C3507" transform="matrix(1.571376704037142,0,0,1.571376704037142,19.46573191500769,149.77788819522772)"><path d="M1.26 3.58L1.26 3.58L1.26 3.58Q1.92 3.58 2.33 3.94L2.33 3.94L2.33 3.94Q2.74 4.30 3.01 5.18L3.01 5.18L3.01 5.18Q3.28 6.06 3.60 9.39L3.60 9.39L3.60 9.39Q3.92 12.73 4.30 13.99L4.30 13.99L4.30 13.99Q4.65 13.15 5.73 11.01L5.73 11.01L5.73 11.01Q6.80 8.88 7.49 7.25L7.49 7.25L7.49 7.25Q8.18 5.63 8.18 4.77L8.18 4.77L8.18 4.77Q8.18 4.37 8.01 4.09L8.01 4.09L8.01 4.09Q8.34 3.58 8.97 3.58L8.97 3.58L8.97 3.58Q9.60 3.58 9.60 4.27L9.60 4.27L9.60 4.27Q9.60 4.96 8.92 6.54L8.92 6.54L8.92 6.54Q8.23 8.12 7.42 9.71L7.42 9.71L7.42 9.71Q6.61 11.30 5.92 12.97L5.92 12.97L5.92 12.97Q5.24 14.64 5.24 15.47L5.24 15.47L5.24 15.47Q5.24 15.61 5.26 15.81L5.26 15.81L5.26 15.81Q5.04 16.13 4.37 16.13L4.37 16.13L4.37 16.13Q3.70 16.13 3.37 15.86L3.37 15.86L3.37 15.86Q3.05 15.58 2.81 14.81L2.81 14.81L2.81 14.81Q2.58 14.03 2.26 10.65L2.26 10.65L2.26 10.65Q1.95 7.28 1.54 5.88L1.54 5.88L1.54 5.88Q1.25 4.84 0.34 4.09L0.34 4.09L0.34 4.09Q0.46 3.85 0.74 3.72L0.74 3.72L0.74 3.72Q1.02 3.58 1.26 3.58ZM12.78 4.26L12.78 4.26L12.78 4.26Q12.78 4.61 12.63 5.11L12.63 5.11L12.63 5.11Q12.11 5.43 11.68 5.43L11.68 5.43L11.68 5.43Q11.26 5.43 11.08 5.28L11.08 5.28L11.08 5.28Q10.91 5.12 10.91 4.84L10.91 4.84L10.91 4.84Q10.91 4.56 11.00 3.98L11.00 3.98L11.00 3.98Q11.52 3.65 11.97 3.65L11.97 3.65L11.97 3.65Q12.78 3.65 12.78 4.26ZM11.45 16.13L11.45 16.13L11.45 16.13Q10.36 16.13 10.36 14.28L10.36 14.28L10.36 14.28Q10.36 13.51 10.65 11.68L10.65 11.68L10.65 11.68Q10.95 9.84 10.95 8.67L10.95 8.67L10.95 8.67Q10.95 7.49 10.65 6.93L10.65 6.93L10.65 6.93Q11.00 6.61 11.51 6.61L11.51 6.61L11.51 6.61Q12.53 6.61 12.53 7.67L12.53 7.67L12.53 7.67Q12.53 8.01 12.21 10.30L12.21 10.30L12.21 10.30Q11.89 12.59 11.89 13.82L11.89 13.82L11.89 13.82Q11.89 15.05 12.42 15.62L12.42 15.62L12.42 15.62Q11.98 16.13 11.45 16.13ZM20.08 6.51L20.08 6.51L20.08 6.51Q21.71 6.51 21.71 8.93L21.71 8.93L21.71 8.93Q21.71 9.63 21.55 10.95L21.55 10.95L21.55 10.95Q21.39 12.26 21.39 12.95L21.39 12.95L21.39 12.95Q21.39 14.92 22.01 15.62L22.01 15.62L22.01 15.62Q21.52 16.13 21.03 16.13L21.03 16.13L21.03 16.13Q19.87 16.13 19.87 13.41L19.87 13.41L19.87 13.41Q19.87 12.40 20.10 10.87L20.10 10.87L20.10 10.87Q20.33 9.34 20.33 8.91L20.33 8.91L20.33 8.91Q20.33 8.48 20.16 8.24L20.16 8.24L20.16 8.24Q19.99 7.99 19.57 7.99L19.57 7.99L19.57 7.99Q19.01 7.99 18.23 9.28L18.23 9.28L18.23 9.28Q17.44 10.56 16.91 12.16L16.91 12.16L16.91 12.16Q16.37 13.76 16.37 14.67L16.37 14.67L16.37 14.67Q16.37 15.58 16.60 15.93L16.60 15.93L16.60 15.93Q16.11 16.13 15.67 16.13L15.67 16.13L15.67 16.13Q15.22 16.13 15.03 15.77L15.03 15.77L15.03 15.77Q14.84 15.41 14.84 14.75L14.84 14.75L14.84 14.75Q14.84 14.08 15.11 12.05L15.11 12.05L15.11 12.05Q15.37 10.01 15.37 8.76L15.37 8.76L15.37 8.76Q15.37 7.50 15.08 6.93L15.08 6.93L15.08 6.93Q15.22 6.79 15.50 6.70L15.50 6.70L15.50 6.70Q15.78 6.61 16.00 6.61L16.00 6.61L16.00 6.61Q16.49 6.61 16.73 6.94L16.73 6.94L16.73 6.94Q16.97 7.28 16.97 8.21L16.97 8.21L16.97 8.21Q16.97 9.14 16.56 11.41L16.56 11.41L16.56 11.41Q18.06 7.83 19.11 6.93L19.11 6.93L19.11 6.93Q19.60 6.51 20.08 6.51ZM25.49 7.21L25.49 7.21L25.52 6.57L25.52 6.57Q25.52 5.26 25.23 4.68L25.23 4.68L25.23 4.68Q25.37 4.55 25.66 4.45L25.66 4.45L25.66 4.45Q25.94 4.35 26.17 4.35L26.17 4.35L26.17 4.35Q26.66 4.35 26.89 4.69L26.89 4.69L26.89 4.69Q27.13 5.03 27.13 5.82L27.13 5.82L27.13 5.82Q27.13 6.13 26.96 7.21L26.96 7.21L26.96 7.21Q28.69 7.18 29.25 6.80L29.25 6.80L29.25 6.80Q29.13 7.71 28.62 8.02L28.62 8.02L28.62 8.02Q28.10 8.33 26.77 8.36L26.77 8.36L26.77 8.36Q26.12 12.32 26.12 14.31L26.12 14.31L26.12 14.31Q26.12 14.77 26.33 14.99L26.33 14.99L26.33 14.99Q26.53 15.22 26.86 15.22L26.86 15.22L26.86 15.22Q27.19 15.22 27.57 14.93L27.57 14.93L27.57 14.93Q27.94 14.64 28.17 14.21L28.17 14.21L28.17 14.21Q28.42 14.52 28.42 14.87L28.42 14.87L28.42 14.87Q28.42 15.41 27.88 15.83L27.88 15.83L27.88 15.83Q27.34 16.24 26.49 16.24L26.49 16.24L26.49 16.24Q25.63 16.24 25.14 15.79L25.14 15.79L25.14 15.79Q24.64 15.33 24.64 14.35L24.64 14.35L24.64 14.35Q24.64 13.47 24.96 11.25L24.96 11.25L24.96 11.25Q25.28 9.03 25.37 8.37L25.37 8.37L25.37 8.37Q24.12 8.37 23.52 8.75L23.52 8.75L23.52 8.75Q23.52 8.11 23.65 7.84L23.65 7.84L23.65 7.84Q23.77 7.57 23.98 7.46L23.98 7.46L23.98 7.46Q24.50 7.21 25.49 7.21ZM31.71 16.23L31.71 16.23L31.71 16.23Q30.76 16.23 30.20 15.29L30.20 15.29L30.20 15.29Q29.65 14.35 29.65 12.71L29.65 12.71L29.65 12.71Q29.65 10.08 30.84 8.27L30.84 8.27L30.84 8.27Q32.02 6.45 33.75 6.45L33.75 6.45L33.75 6.45Q34.94 6.45 35.73 7.39L35.73 7.39L35.73 7.39Q35.84 6.96 36.02 6.78L36.02 6.78L36.02 6.78Q36.19 6.59 36.56 6.59L36.56 6.59L36.56 6.59Q36.93 6.59 37.25 6.96L37.25 6.96L37.25 6.96Q37.00 7.63 36.82 9.21L36.82 9.21L36.82 9.21Q36.64 10.79 36.64 12.16L36.64 12.16L36.64 12.16Q36.64 13.52 36.78 14.27L36.78 14.27L36.78 14.27Q36.93 15.02 37.28 15.61L37.28 15.61L37.28 15.61Q36.88 16.13 36.33 16.13L36.33 16.13L36.33 16.13Q35.13 16.13 35.13 13.17L35.13 13.17L35.13 13.17Q35.13 12.70 35.24 11.51L35.24 11.51L35.24 11.51Q34.51 13.54 33.51 14.88L33.51 14.88L33.51 14.88Q32.51 16.23 31.71 16.23ZM33.81 7.42L33.81 7.42L33.81 7.42Q32.62 7.42 31.87 8.81L31.87 8.81L31.87 8.81Q31.12 10.19 31.12 12.36L31.12 12.36L31.12 12.36Q31.12 13.47 31.41 14.11L31.41 14.11L31.41 14.11Q31.70 14.74 32.19 14.74L32.19 14.74L32.19 14.74Q32.69 14.74 33.45 13.65L33.45 13.65L33.45 13.65Q34.22 12.56 34.85 10.98L34.85 10.98L34.85 10.98Q35.48 9.41 35.62 8.15L35.62 8.15L35.62 8.15Q34.66 7.42 33.81 7.42ZM40.78 16.13L40.78 16.13L40.78 16.13Q39.69 16.13 39.69 14.28L39.69 14.28L39.69 14.28Q39.69 13.51 39.98 11.68L39.98 11.68L39.98 11.68Q40.28 9.84 40.28 8.67L40.28 8.67L40.28 8.67Q40.28 7.49 39.98 6.93L39.98 6.93L39.98 6.93Q40.33 6.61 40.84 6.61L40.84 6.61L40.84 6.61Q41.86 6.61 41.86 7.67L41.86 7.67L41.86 7.67Q41.86 8.05 41.68 9.23L41.68 9.23L41.68 9.23Q41.51 10.40 41.45 10.84L41.45 10.84L41.45 10.84Q42.21 8.85 43.16 7.65L43.16 7.65L43.16 7.65Q44.10 6.45 44.72 6.45L44.72 6.45L44.72 6.45Q45.07 6.45 45.24 6.79L45.24 6.79L45.24 6.79Q45.42 7.13 45.42 7.48L45.42 7.48L45.42 7.48Q45.42 7.83 45.33 8.19L45.33 8.19L45.33 8.19Q45.12 8.15 44.94 8.15L44.94 8.15L44.94 8.15Q44.04 8.15 43.14 9.20L43.14 9.20L43.14 9.20Q42.24 10.25 41.73 11.51L41.73 11.51L41.73 11.51Q41.22 12.77 41.22 13.59L41.22 13.59L41.22 13.59Q41.22 15.05 41.75 15.62L41.75 15.62L41.75 15.62Q41.31 16.13 40.78 16.13ZM48.73 3.95L48.73 3.95L48.73 3.95Q48.73 4.19 48.51 5.03L48.51 5.03L48.51 5.03Q48.29 5.88 48.29 6.25L48.29 6.25L48.29 6.25Q48.29 6.62 48.45 6.97L48.45 6.97L48.45 6.97Q48.15 7.17 47.74 7.17L47.74 7.17L47.74 7.17Q47.10 7.17 47.10 6.33L47.10 6.33L47.10 6.33Q47.10 5.91 47.24 5.22L47.24 5.22L47.24 5.22Q47.38 4.54 47.38 4.21L47.38 4.21L47.38 4.21Q47.38 3.88 47.25 3.61L47.25 3.61L47.25 3.61Q47.63 3.29 48.29 3.29L48.29 3.29L48.29 3.29Q48.73 3.29 48.73 3.95ZM52.64 7.43L52.64 7.43L52.64 7.43Q52.05 7.43 51.70 7.74L51.70 7.74L51.70 7.74Q51.35 8.04 51.35 8.55L51.35 8.55L51.35 8.55Q51.35 9.07 51.70 9.46L51.70 9.46L51.70 9.46Q52.04 9.86 52.86 10.53L52.86 10.53L52.86 10.53Q53.69 11.20 53.89 11.37L53.89 11.37L53.89 11.37Q55.01 12.29 55.01 13.52L55.01 13.52L55.01 13.52Q55.01 14.76 54.19 15.48L54.19 15.48L54.19 15.48Q53.38 16.21 51.88 16.21L51.88 16.21L51.88 16.21Q50.76 16.21 50.02 15.79L50.02 15.79L50.02 15.79Q49.27 15.36 49.27 14.55L49.27 14.55L49.27 14.55Q49.27 13.97 49.94 13.30L49.94 13.30L49.94 13.30Q50.18 14.31 50.80 14.81L50.80 14.81L50.80 14.81Q51.42 15.30 52.10 15.30L52.10 15.30L52.10 15.30Q52.78 15.30 53.22 14.97L53.22 14.97L53.22 14.97Q53.66 14.63 53.66 14.08L53.66 14.08L53.66 14.08Q53.66 13.61 53.49 13.34L53.49 13.34L53.49 13.34Q53.31 13.06 53.21 12.93L53.21 12.93L53.21 12.93Q53.12 12.80 52.84 12.55L52.84 12.55L52.84 12.55Q52.56 12.31 52.41 12.19L52.41 12.19L52.41 12.19Q52.26 12.07 51.84 11.74L51.84 11.74L51.84 11.74Q51.42 11.41 51.21 11.24L51.21 11.24L51.21 11.24Q50.05 10.33 50.05 9.06L50.05 9.06L50.05 9.06Q50.05 7.78 50.92 7.12L50.92 7.12L50.92 7.12Q51.79 6.45 53.30 6.45L53.30 6.45L53.30 6.45Q55.19 6.45 55.19 7.76L55.19 7.76L55.19 7.76Q55.19 8.37 54.54 8.88L54.54 8.88L54.54 8.88Q53.96 7.43 52.64 7.43ZM64.53 16.18L64.53 16.18L64.53 16.18Q63.14 16.18 62.54 15.76L62.54 15.76L62.54 15.76Q61.94 15.34 61.94 14.41L61.94 14.41L61.94 14.41Q61.94 13.48 62.47 10.15L62.47 10.15L62.47 10.15Q63 6.82 63 5.76L63 5.76L63 5.76Q63 4.70 62.79 4.07L62.79 4.07L62.79 4.07Q64.46 3.71 65.79 3.71L65.79 3.71L65.79 3.71Q67.96 3.71 69.10 4.74L69.10 4.74L69.10 4.74Q70.24 5.77 70.24 8.06L70.24 8.06L70.24 8.06Q70.24 10.36 69.55 12.17L69.55 12.17L69.55 12.17Q68.87 13.97 67.54 15.08L67.54 15.08L67.54 15.08Q66.22 16.18 64.53 16.18ZM63.46 13.79L63.46 13.79L63.46 13.79Q63.46 14.42 63.57 14.84L63.57 14.84L63.57 14.84Q64.16 15.20 65.05 15.20L65.05 15.20L65.05 15.20Q65.94 15.20 66.72 14.58L66.72 14.58L66.72 14.58Q67.51 13.96 67.93 12.98L67.93 12.98L67.93 12.98Q68.77 11.02 68.77 8.74L68.77 8.74L68.77 8.74Q68.77 6.45 68.08 5.51L68.08 5.51L68.08 5.51Q67.40 4.56 65.66 4.56L65.66 4.56L65.66 4.56Q65.13 4.56 64.60 4.66L64.60 4.66L64.60 4.66Q64.60 5.38 64.03 8.86L64.03 8.86L64.03 8.86Q63.46 12.33 63.46 13.79ZM74.58 4.26L74.58 4.26L74.58 4.26Q74.58 4.61 74.42 5.11L74.42 5.11L74.42 5.11Q73.91 5.43 73.48 5.43L73.48 5.43L73.48 5.43Q73.05 5.43 72.88 5.28L72.88 5.28L72.88 5.28Q72.70 5.12 72.70 4.84L72.70 4.84L72.70 4.84Q72.70 4.56 72.80 3.98L72.80 3.98L72.80 3.98Q73.32 3.65 73.77 3.65L73.77 3.65L73.77 3.65Q74.58 3.65 74.58 4.26ZM73.25 16.13L73.25 16.13L73.25 16.13Q72.16 16.13 72.16 14.28L72.16 14.28L72.16 14.28Q72.16 13.51 72.45 11.68L72.45 11.68L72.45 11.68Q72.74 9.84 72.74 8.67L72.74 8.67L72.74 8.67Q72.74 7.49 72.45 6.93L72.45 6.93L72.45 6.93Q72.80 6.61 73.30 6.61L73.30 6.61L73.30 6.61Q74.33 6.61 74.33 7.67L74.33 7.67L74.33 7.67Q74.33 8.01 74.00 10.30L74.00 10.30L74.00 10.30Q73.68 12.59 73.68 13.82L73.68 13.82L73.68 13.82Q73.68 15.05 74.21 15.62L74.21 15.62L74.21 15.62Q73.78 16.13 73.25 16.13ZM83.36 13.92L83.36 13.92L83.36 13.92Q83.36 16.52 82.26 18.05L82.26 18.05L82.26 18.05Q81.17 19.59 79.34 19.59L79.34 19.59L79.34 19.59Q78.78 19.59 78.32 19.50L78.32 19.50L78.32 19.50Q77.85 19.40 77.46 19.10L77.46 19.10L77.46 19.10Q77.07 18.79 77.07 18.21L77.07 18.21L77.07 18.21Q77.07 17.64 77.57 17.16L77.57 17.16L77.57 17.16Q78.39 18.55 79.88 18.55L79.88 18.55L79.88 18.55Q80.64 18.55 80.98 18.13L80.98 18.13L80.98 18.13Q81.19 17.89 81.33 17.64L81.33 17.64L81.33 17.64Q81.48 17.39 81.59 16.88L81.59 16.88L81.59 16.88Q81.69 16.38 81.75 15.94L81.75 15.94L81.75 15.94Q81.82 15.50 81.86 14.70L81.86 14.70L81.86 14.70Q81.91 13.57 81.97 11.52L81.97 11.52L81.97 11.52Q81.24 13.57 80.23 14.90L80.23 14.90L80.23 14.90Q79.23 16.23 78.39 16.23L78.39 16.23L78.39 16.23Q77.55 16.23 76.97 15.35L76.97 15.35L76.97 15.35Q76.38 14.48 76.38 12.71L76.38 12.71L76.38 12.71Q76.38 10.46 77.39 8.54L77.39 8.54L77.39 8.54Q77.87 7.62 78.68 7.04L78.68 7.04L78.68 7.04Q79.49 6.45 80.58 6.45L80.58 6.45L80.58 6.45Q81.68 6.45 82.46 7.39L82.46 7.39L82.46 7.39Q82.57 6.94 82.75 6.77L82.75 6.77L82.75 6.77Q82.92 6.59 83.37 6.59L83.37 6.59L83.37 6.59Q83.82 6.59 84.20 6.89L84.20 6.89L84.20 6.89Q83.90 7.39 83.57 8.25L83.57 8.25L83.57 8.25Q83.36 10.00 83.36 13.92ZM80.54 7.42L80.54 7.42L80.54 7.42Q79.31 7.42 78.58 8.84L78.58 8.84L78.58 8.84Q77.85 10.26 77.85 12.36L77.85 12.36L77.85 12.36Q77.85 13.41 78.12 14.08L78.12 14.08L78.12 14.08Q78.39 14.74 78.90 14.74L78.90 14.74L78.90 14.74Q79.42 14.74 80.19 13.66L80.19 13.66L80.19 13.66Q80.95 12.57 81.58 11.00L81.58 11.00L81.58 11.00Q82.21 9.42 82.35 8.15L82.35 8.15L82.35 8.15Q81.38 7.42 80.54 7.42ZM88.69 4.26L88.69 4.26L88.69 4.26Q88.69 4.61 88.54 5.11L88.54 5.11L88.54 5.11Q88.02 5.43 87.59 5.43L87.59 5.43L87.59 5.43Q87.16 5.43 86.99 5.28L86.99 5.28L86.99 5.28Q86.81 5.12 86.81 4.84L86.81 4.84L86.81 4.84Q86.81 4.56 86.91 3.98L86.91 3.98L86.91 3.98Q87.43 3.65 87.88 3.65L87.88 3.65L87.88 3.65Q88.69 3.65 88.69 4.26ZM87.36 16.13L87.36 16.13L87.36 16.13Q86.27 16.13 86.27 14.28L86.27 14.28L86.27 14.28Q86.27 13.51 86.56 11.68L86.56 11.68L86.56 11.68Q86.86 9.84 86.86 8.67L86.86 8.67L86.86 8.67Q86.86 7.49 86.56 6.93L86.56 6.93L86.56 6.93Q86.91 6.61 87.42 6.61L87.42 6.61L87.42 6.61Q88.44 6.61 88.44 7.67L88.44 7.67L88.44 7.67Q88.44 8.01 88.12 10.30L88.12 10.30L88.12 10.30Q87.79 12.59 87.79 13.82L87.79 13.82L87.79 13.82Q87.79 15.05 88.33 15.62L88.33 15.62L88.33 15.62Q87.89 16.13 87.36 16.13ZM92.06 7.21L92.06 7.21L92.09 6.57L92.09 6.57Q92.09 5.26 91.80 4.68L91.80 4.68L91.80 4.68Q91.94 4.55 92.22 4.45L92.22 4.45L92.22 4.45Q92.51 4.35 92.74 4.35L92.74 4.35L92.74 4.35Q93.23 4.35 93.46 4.69L93.46 4.69L93.46 4.69Q93.70 5.03 93.70 5.82L93.70 5.82L93.70 5.82Q93.70 6.13 93.53 7.21L93.53 7.21L93.53 7.21Q95.26 7.18 95.82 6.80L95.82 6.80L95.82 6.80Q95.70 7.71 95.19 8.02L95.19 8.02L95.19 8.02Q94.67 8.33 93.34 8.36L93.34 8.36L93.34 8.36Q92.69 12.32 92.69 14.31L92.69 14.31L92.69 14.31Q92.69 14.77 92.90 14.99L92.90 14.99L92.90 14.99Q93.10 15.22 93.43 15.22L93.43 15.22L93.43 15.22Q93.76 15.22 94.14 14.93L94.14 14.93L94.14 14.93Q94.51 14.64 94.74 14.21L94.74 14.21L94.74 14.21Q94.99 14.52 94.99 14.87L94.99 14.87L94.99 14.87Q94.99 15.41 94.45 15.83L94.45 15.83L94.45 15.83Q93.91 16.24 93.06 16.24L93.06 16.24L93.06 16.24Q92.20 16.24 91.71 15.79L91.71 15.79L91.71 15.79Q91.21 15.33 91.21 14.35L91.21 14.35L91.21 14.35Q91.21 13.47 91.53 11.25L91.53 11.25L91.53 11.25Q91.85 9.03 91.94 8.37L91.94 8.37L91.94 8.37Q90.69 8.37 90.09 8.75L90.09 8.75L90.09 8.75Q90.09 8.11 90.22 7.84L90.22 7.84L90.22 7.84Q90.34 7.57 90.55 7.46L90.55 7.46L90.55 7.46Q91.07 7.21 92.06 7.21ZM98.28 16.23L98.28 16.23L98.28 16.23Q97.33 16.23 96.77 15.29L96.77 15.29L96.77 15.29Q96.22 14.35 96.22 12.71L96.22 12.71L96.22 12.71Q96.22 10.08 97.41 8.27L97.41 8.27L97.41 8.27Q98.59 6.45 100.32 6.45L100.32 6.45L100.32 6.45Q101.51 6.45 102.30 7.39L102.30 7.39L102.30 7.39Q102.41 6.96 102.58 6.78L102.58 6.78L102.58 6.78Q102.76 6.59 103.13 6.59L103.13 6.59L103.13 6.59Q103.50 6.59 103.82 6.96L103.82 6.96L103.82 6.96Q103.57 7.63 103.39 9.21L103.39 9.21L103.39 9.21Q103.21 10.79 103.21 12.16L103.21 12.16L103.21 12.16Q103.21 13.52 103.35 14.27L103.35 14.27L103.35 14.27Q103.50 15.02 103.85 15.61L103.85 15.61L103.85 15.61Q103.45 16.13 102.90 16.13L102.90 16.13L102.90 16.13Q101.70 16.13 101.70 13.17L101.70 13.17L101.70 13.17Q101.70 12.70 101.81 11.51L101.81 11.51L101.81 11.51Q101.08 13.54 100.08 14.88L100.08 14.88L100.08 14.88Q99.08 16.23 98.28 16.23ZM100.38 7.42L100.38 7.42L100.38 7.42Q99.19 7.42 98.44 8.81L98.44 8.81L98.44 8.81Q97.69 10.19 97.69 12.36L97.69 12.36L97.69 12.36Q97.69 13.47 97.98 14.11L97.98 14.11L97.98 14.11Q98.27 14.74 98.76 14.74L98.76 14.74L98.76 14.74Q99.26 14.74 100.02 13.65L100.02 13.65L100.02 13.65Q100.79 12.56 101.42 10.98L101.42 10.98L101.42 10.98Q102.05 9.41 102.19 8.15L102.19 8.15L102.19 8.15Q101.23 7.42 100.38 7.42ZM108.86 4.35L108.86 4.35L108.86 4.35Q108.86 5.12 108.32 8.71L108.32 8.71L108.32 8.71Q107.79 12.29 107.79 13.67L107.79 13.67L107.79 13.67Q107.79 15.05 108.32 15.62L108.32 15.62L108.32 15.62Q107.88 16.13 107.35 16.13L107.35 16.13L107.35 16.13Q106.26 16.13 106.26 14.28L106.26 14.28L106.26 14.28Q106.26 13.59 106.76 10.19L106.76 10.19L106.76 10.19Q107.25 6.79 107.25 5.30L107.25 5.30L107.25 5.30Q107.25 3.81 106.96 3.22L106.96 3.22L106.96 3.22Q107.11 3.09 107.40 3.00L107.40 3.00L107.40 3.00Q107.69 2.91 107.90 2.91L107.90 2.91L107.90 2.91Q108.39 2.91 108.63 3.25L108.63 3.25L108.63 3.25Q108.86 3.58 108.86 4.35ZM125.93 5.04L125.93 5.04L125.93 5.04Q125.93 5.81 125.39 9.05L125.39 9.05L125.39 9.05Q124.85 12.29 124.85 13.66L124.85 13.66L124.85 13.66Q124.85 15.02 125.38 15.62L125.38 15.62L125.38 15.62Q124.95 16.13 124.42 16.13L124.42 16.13L124.42 16.13Q123.33 16.13 123.33 14.28L123.33 14.28L123.33 14.28Q123.33 13.52 123.83 10.27L123.83 10.27L123.83 10.27Q124.33 7.01 124.33 5.67L124.33 5.67L124.33 5.67Q122.28 9.80 121.93 10.89L121.93 10.89L121.93 10.89Q121.58 11.97 121.58 12.47L121.58 12.47L121.58 12.47Q121.58 12.59 121.60 12.81L121.60 12.81L121.60 12.81Q121.51 12.94 121.22 13.03L121.22 13.03L121.22 13.03Q120.93 13.13 120.64 13.13L120.64 13.13L120.64 13.13Q120.02 13.13 119.69 12.73L119.69 12.73L119.69 12.73Q119.36 12.33 119.10 11.25L119.10 11.25L119.10 11.25Q118.83 10.16 118.48 8.62L118.48 8.62L118.48 8.62Q118.13 7.08 117.84 6.01L117.84 6.01L117.84 6.01Q117.81 6.27 117.31 9.33L117.31 9.33L117.31 9.33Q116.82 12.39 116.82 13.71L116.82 13.71L116.82 13.71Q116.82 15.02 117.36 15.62L117.36 15.62L117.36 15.62Q117.17 16.13 116.59 16.13L116.59 16.13L116.59 16.13Q115.57 16.13 115.57 14.28L115.57 14.28L115.57 14.28Q115.57 13.51 116.07 10.28L116.07 10.28L116.07 10.28Q116.56 7.06 116.56 5.78L116.56 5.78L116.56 5.78Q116.56 4.49 116.27 3.91L116.27 3.91L116.27 3.91Q116.59 3.58 117.25 3.59L117.25 3.59L117.25 3.59Q117.91 3.60 118.38 3.97L118.38 3.97L118.38 3.97Q118.85 4.34 119.10 5.19L119.10 5.19L119.10 5.19Q119.36 6.03 119.79 8.05L119.79 8.05L119.79 8.05Q120.22 10.07 120.64 11.41L120.64 11.41L120.64 11.41Q120.95 10.57 121.76 8.87L121.76 8.87L121.76 8.87Q122.57 7.17 123.13 5.86L123.13 5.86L123.13 5.86Q123.69 4.55 123.69 3.98L123.69 3.98L123.69 3.98Q124.14 3.58 124.98 3.58L124.98 3.58L124.98 3.58Q125.45 3.58 125.69 3.93L125.69 3.93L125.69 3.93Q125.93 4.27 125.93 5.04ZM129.61 16.23L129.61 16.23L129.61 16.23Q128.66 16.23 128.11 15.29L128.11 15.29L128.11 15.29Q127.55 14.35 127.55 12.71L127.55 12.71L127.55 12.71Q127.55 10.08 128.74 8.27L128.74 8.27L128.74 8.27Q129.92 6.45 131.66 6.45L131.66 6.45L131.66 6.45Q132.85 6.45 133.63 7.39L133.63 7.39L133.63 7.39Q133.74 6.96 133.92 6.78L133.92 6.78L133.92 6.78Q134.09 6.59 134.46 6.59L134.46 6.59L134.46 6.59Q134.83 6.59 135.16 6.96L135.16 6.96L135.16 6.96Q134.90 7.63 134.72 9.21L134.72 9.21L134.72 9.21Q134.54 10.79 134.54 12.16L134.54 12.16L134.54 12.16Q134.54 13.52 134.69 14.27L134.69 14.27L134.69 14.27Q134.83 15.02 135.18 15.61L135.18 15.61L135.18 15.61Q134.78 16.13 134.23 16.13L134.23 16.13L134.23 16.13Q133.03 16.13 133.03 13.17L133.03 13.17L133.03 13.17Q133.03 12.70 133.14 11.51L133.14 11.51L133.14 11.51Q132.41 13.54 131.41 14.88L131.41 14.88L131.41 14.88Q130.41 16.23 129.61 16.23ZM131.71 7.42L131.71 7.42L131.71 7.42Q130.52 7.42 129.77 8.81L129.77 8.81L129.77 8.81Q129.02 10.19 129.02 12.36L129.02 12.36L129.02 12.36Q129.02 13.47 129.31 14.11L129.31 14.11L129.31 14.11Q129.60 14.74 130.09 14.74L130.09 14.74L130.09 14.74Q130.59 14.74 131.35 13.65L131.35 13.65L131.35 13.65Q132.12 12.56 132.75 10.98L132.75 10.98L132.75 10.98Q133.38 9.41 133.52 8.15L133.52 8.15L133.52 8.15Q132.57 7.42 131.71 7.42ZM138.68 16.13L138.68 16.13L138.68 16.13Q137.59 16.13 137.59 14.28L137.59 14.28L137.59 14.28Q137.59 13.51 137.89 11.68L137.89 11.68L137.89 11.68Q138.18 9.84 138.18 8.67L138.18 8.67L138.18 8.67Q138.18 7.49 137.89 6.93L137.89 6.93L137.89 6.93Q138.24 6.61 138.74 6.61L138.74 6.61L138.74 6.61Q139.76 6.61 139.76 7.67L139.76 7.67L139.76 7.67Q139.76 8.05 139.59 9.23L139.59 9.23L139.59 9.23Q139.41 10.40 139.36 10.84L139.36 10.84L139.36 10.84Q140.11 8.85 141.06 7.65L141.06 7.65L141.06 7.65Q142.00 6.45 142.62 6.45L142.62 6.45L142.62 6.45Q142.97 6.45 143.14 6.79L143.14 6.79L143.14 6.79Q143.32 7.13 143.32 7.48L143.32 7.48L143.32 7.48Q143.32 7.83 143.23 8.19L143.23 8.19L143.23 8.19Q143.02 8.15 142.84 8.15L142.84 8.15L142.84 8.15Q141.95 8.15 141.04 9.20L141.04 9.20L141.04 9.20Q140.14 10.25 139.63 11.51L139.63 11.51L139.63 11.51Q139.12 12.77 139.12 13.59L139.12 13.59L139.12 13.59Q139.12 15.05 139.65 15.62L139.65 15.62L139.65 15.62Q139.22 16.13 138.68 16.13ZM145.80 13.71L145.80 13.71L145.80 13.71Q145.80 15.02 146.33 15.62L146.33 15.62L146.33 15.62Q145.89 16.13 145.36 16.13L145.36 16.13L145.36 16.13Q144.27 16.13 144.27 14.28L144.27 14.28L144.27 14.28Q144.27 13.59 144.77 10.19L144.77 10.19L144.77 10.19Q145.28 6.79 145.28 5.30L145.28 5.30L145.28 5.30Q145.28 3.81 144.98 3.22L144.98 3.22L144.98 3.22Q145.32 2.91 145.86 2.91L145.86 2.91L145.86 2.91Q146.40 2.91 146.64 3.25L146.64 3.25L146.64 3.25Q146.87 3.58 146.87 4.25L146.87 4.25L146.87 4.25Q146.87 4.91 146.73 5.95L146.73 5.95L146.73 5.95Q146.59 6.99 146.36 8.48L146.36 8.48L146.36 8.48Q146.13 9.98 146.02 10.91L146.02 10.91L146.02 10.91Q147.36 9.62 148.34 8.41L148.34 8.41L148.34 8.41Q149.32 7.20 149.45 6.68L149.45 6.68L149.45 6.68Q150.02 6.68 150.37 6.86L150.37 6.86L150.37 6.86Q150.71 7.04 150.71 7.32L150.71 7.32L150.71 7.32Q150.71 7.78 147.50 10.77L147.50 10.77L147.50 10.77Q148.86 13.06 149.46 13.79L149.46 13.79L149.46 13.79Q150.30 14.81 151.16 14.94L151.16 14.94L151.16 14.94Q151.14 15.62 150.80 15.90L150.80 15.90L150.80 15.90Q150.46 16.17 150.12 16.17L150.12 16.17L150.12 16.17Q149.25 16.17 148.20 14.55L148.20 14.55L148.20 14.55Q147.71 13.78 147.21 12.91L147.21 12.91L147.21 12.91Q146.71 12.04 146.50 11.69L146.50 11.69L145.87 12.25L145.87 12.25Q145.80 13.13 145.80 13.71ZM154.59 12.10L154.59 12.10L154.59 12.10Q154.21 12.10 153.83 12.05L153.83 12.05L153.83 12.05Q153.85 13.61 154.41 14.42L154.41 14.42L154.41 14.42Q154.98 15.23 156.00 15.23L156.00 15.23L156.00 15.23Q157.44 15.23 158.10 13.82L158.10 13.82L158.10 13.82Q158.44 14.14 158.44 14.60L158.44 14.60L158.44 14.60Q158.44 15.39 157.56 15.83L157.56 15.83L157.56 15.83Q156.69 16.27 155.74 16.27L155.74 16.27L155.74 16.27Q154.04 16.27 153.18 15.19L153.18 15.19L153.18 15.19Q152.32 14.11 152.32 12.40L152.32 12.40L152.32 12.40Q152.32 11.38 152.64 10.34L152.64 10.34L152.64 10.34Q152.96 9.30 153.52 8.42L153.52 8.42L153.52 8.42Q154.08 7.55 154.97 7.00L154.97 7.00L154.97 7.00Q155.85 6.45 156.90 6.45L156.90 6.45L156.90 6.45Q157.95 6.45 158.50 6.99L158.50 6.99L158.50 6.99Q159.05 7.52 159.05 8.36L159.05 8.36L159.05 8.36Q159.05 9.72 157.80 10.91L157.80 10.91L157.80 10.91Q156.55 12.10 154.59 12.10ZM157.58 8.82L157.58 8.82Q157.58 8.25 157.23 7.88L157.23 7.88L157.23 7.88Q156.87 7.50 156.25 7.50L156.25 7.50L156.25 7.50Q155.62 7.50 155.17 7.85L155.17 7.85L155.17 7.85Q154.71 8.20 154.45 8.79L154.45 8.79L154.45 8.79Q153.97 9.88 153.86 11.16L153.86 11.16L153.86 11.16Q154.20 11.20 154.49 11.20L154.49 11.20L154.49 11.20Q155.92 11.20 156.75 10.46L156.75 10.46L156.75 10.46Q157.58 9.73 157.58 8.82L157.58 8.82ZM162.05 7.21L162.05 7.21L162.08 6.57L162.08 6.57Q162.08 5.26 161.78 4.68L161.78 4.68L161.78 4.68Q161.92 4.55 162.21 4.45L162.21 4.45L162.21 4.45Q162.50 4.35 162.72 4.35L162.72 4.35L162.72 4.35Q163.21 4.35 163.45 4.69L163.45 4.69L163.45 4.69Q163.69 5.03 163.69 5.82L163.69 5.82L163.69 5.82Q163.69 6.13 163.52 7.21L163.52 7.21L163.52 7.21Q165.24 7.18 165.80 6.80L165.80 6.80L165.80 6.80Q165.69 7.71 165.17 8.02L165.17 8.02L165.17 8.02Q164.65 8.33 163.32 8.36L163.32 8.36L163.32 8.36Q162.68 12.32 162.68 14.31L162.68 14.31L162.68 14.31Q162.68 14.77 162.88 14.99L162.88 14.99L162.88 14.99Q163.09 15.22 163.41 15.22L163.41 15.22L163.41 15.22Q163.74 15.22 164.12 14.93L164.12 14.93L164.12 14.93Q164.50 14.64 164.72 14.21L164.72 14.21L164.72 14.21Q164.98 14.52 164.98 14.87L164.98 14.87L164.98 14.87Q164.98 15.41 164.44 15.83L164.44 15.83L164.44 15.83Q163.90 16.24 163.04 16.24L163.04 16.24L163.04 16.24Q162.19 16.24 161.69 15.79L161.69 15.79L161.69 15.79Q161.20 15.33 161.20 14.35L161.20 14.35L161.20 14.35Q161.20 13.47 161.52 11.25L161.52 11.25L161.52 11.25Q161.84 9.03 161.92 8.37L161.92 8.37L161.92 8.37Q160.68 8.37 160.08 8.75L160.08 8.75L160.08 8.75Q160.08 8.11 160.20 7.84L160.20 7.84L160.20 7.84Q160.33 7.57 160.54 7.46L160.54 7.46L160.54 7.46Q161.06 7.21 162.05 7.21Z"></path></g><defs data-v-fde0c5aa=""><linearGradient data-v-fde0c5aa="" gradientTransform="rotate(25)" id="e7b39492-d671-479c-bb85-4489fb3dc537" x1="0%" y1="0%" x2="100%" y2="0%"><stop data-v-fde0c5aa="" offset="0%" stop-color="#5A5A2D" stop-opacity="1"></stop><stop data-v-fde0c5aa="" offset="100%" stop-color="#0DE30D" stop-opacity="1"></stop></linearGradient></defs><g data-v-fde0c5aa="" id="f0e584b5-cf86-4a6a-b8f1-368d1045fec0" stroke="none" fill="url(#e7b39492-d671-479c-bb85-4489fb3dc537)" transform="matrix(1.094667143111729,0,0,1.094667143111729,132.48532571021235,101.32124595927282)"><path d="M4.029 14.362L14.362 4.028l.707.707L4.736 15.07zM17.135 27.47L27.47 17.135l.707.707-10.333 10.333zM4.029 17.841l.707-.707 10.333 10.334-.707.707zM17.135 4.735l.708-.707L28.176 14.36l-.707.707z"></path><g><path d="M16 1.414l1.683 1.683L16 4.779l-1.683-1.683L16 1.414M16 0l-3.097 3.097L16 6.194l3.097-3.097L16 0zM16 27.221l1.683 1.683L16 30.586l-1.683-1.683L16 27.221m0-1.415l-3.097 3.097L16 32l3.097-3.097L16 25.806zM3.097 14.317L4.779 16l-1.683 1.683L1.414 16l1.683-1.683m0-1.414L0 16l3.097 3.097L6.194 16l-3.097-3.097zM28.903 14.317L30.586 16l-1.683 1.683L27.221 16l1.682-1.683m0-1.414L25.806 16l3.097 3.097L32 16l-3.097-3.097z"></path></g></g><defs data-v-fde0c5aa=""><!----></defs><g data-v-fde0c5aa="" id="96e7773e-da41-4662-8216-d033221ec6e0" fill="#0C3507" transform="matrix(0.6346830041598628,0,0,0.6346830041598628,52.055721904654106,188.25725906399978)"><path d="M12.57 4.44C12.75 4.42 12.85 4.34 12.85 4.19L12.85 3.92L11.68 3.92L11.17 3.92C11.10 3.92 11.06 3.92 11.02 3.93C10.98 3.95 10.95 3.99 10.91 4.05L7.01 10.92C6.97 10.99 6.94 11.06 6.92 11.13C6.89 11.20 6.86 11.28 6.83 11.35C6.78 11.20 6.72 11.06 6.65 10.93L2.65 4.05C2.60 3.99 2.58 3.95 2.53 3.93C2.49 3.92 2.45 3.92 2.38 3.92L1.89 3.92L0.70 3.92L0.70 4.19C0.70 4.34 0.80 4.42 0.98 4.44L1.12 4.44C1.19 4.44 1.29 4.45 1.43 4.45C1.57 4.45 1.72 4.47 1.89 4.47L1.89 13.26C1.72 13.26 1.57 13.27 1.43 13.27C1.29 13.27 1.19 13.29 1.12 13.29L0.98 13.29C0.80 13.30 0.70 13.38 0.70 13.54L0.70 13.82L1.89 13.82L2.51 13.82L3.72 13.82L3.72 13.54C3.72 13.38 3.63 13.30 3.44 13.29L3.30 13.29C3.23 13.29 3.12 13.27 2.98 13.27C2.84 13.27 2.67 13.26 2.51 13.26L2.51 5.38C2.51 5.25 2.51 5.12 2.49 4.98L6.50 11.91C6.57 12.04 6.66 12.10 6.78 12.10L6.89 12.10C7.01 12.10 7.10 12.04 7.17 11.91L11.06 4.98C11.05 5.12 11.05 5.25 11.05 5.38L11.05 13.26C10.88 13.26 10.71 13.27 10.57 13.27C10.43 13.27 10.32 13.29 10.25 13.29L10.11 13.29C9.93 13.30 9.83 13.38 9.83 13.54L9.83 13.82L11.05 13.82L11.68 13.82L12.85 13.82L12.85 13.54C12.85 13.38 12.75 13.30 12.57 13.29L12.45 13.29C12.38 13.29 12.26 13.27 12.12 13.27C11.98 13.27 11.84 13.26 11.68 13.26L11.68 4.47C11.84 4.47 11.98 4.45 12.12 4.45C12.26 4.45 12.38 4.44 12.45 4.44ZM26.80 13.29L26.70 13.29L26.47 13.29C26.38 13.29 26.26 13.27 26.15 13.27L26.15 9.28C26.15 8.89 26.11 8.55 26.01 8.23C25.91 7.91 25.77 7.64 25.59 7.42C25.41 7.20 25.17 7.03 24.89 6.92C24.61 6.79 24.29 6.73 23.91 6.73C23.41 6.73 22.96 6.83 22.55 7.01C22.15 7.20 21.77 7.48 21.41 7.84L21.52 8.05C21.56 8.13 21.63 8.18 21.73 8.18C21.80 8.18 21.90 8.12 21.99 8.02C22.09 7.92 22.23 7.84 22.40 7.73C22.57 7.62 22.75 7.52 22.99 7.42C23.23 7.32 23.51 7.28 23.84 7.28C24.39 7.28 24.81 7.45 25.09 7.80C25.37 8.15 25.49 8.64 25.49 9.28L25.49 10.01C24.71 10.02 24.04 10.09 23.48 10.21C22.92 10.32 22.46 10.47 22.09 10.65C21.73 10.84 21.48 11.06 21.31 11.31C21.14 11.56 21.06 11.83 21.06 12.12C21.06 12.45 21.11 12.73 21.21 12.95C21.32 13.17 21.46 13.36 21.63 13.50C21.80 13.64 22.01 13.75 22.23 13.82C22.46 13.89 22.68 13.93 22.92 13.93C23.20 13.93 23.46 13.90 23.70 13.85C23.94 13.79 24.15 13.71 24.36 13.61C24.57 13.51 24.77 13.38 24.96 13.23C25.14 13.08 25.33 12.91 25.52 12.73L25.62 13.62C25.65 13.75 25.75 13.82 25.89 13.82L25.90 13.82L26.15 13.82L27.08 13.82L27.08 13.54C27.08 13.38 26.98 13.30 26.80 13.29ZM25.49 12.26C25.33 12.43 25.17 12.60 25.00 12.74C24.84 12.88 24.65 13.01 24.46 13.12C24.26 13.23 24.05 13.30 23.83 13.36C23.60 13.41 23.35 13.44 23.09 13.44C22.90 13.44 22.72 13.43 22.55 13.37C22.39 13.31 22.25 13.24 22.12 13.13C21.99 13.02 21.88 12.88 21.81 12.71C21.73 12.54 21.70 12.35 21.70 12.11C21.70 11.86 21.77 11.63 21.92 11.44C22.08 11.24 22.30 11.09 22.61 10.95C22.92 10.81 23.31 10.70 23.79 10.61C24.26 10.53 24.84 10.47 25.49 10.46ZM41.75 13.29L41.68 13.29L41.61 13.29L41.45 13.29C41.38 13.29 41.30 13.27 41.22 13.27L38.49 10.30C38.43 10.25 38.39 10.19 38.33 10.14C38.28 10.08 38.21 10.05 38.14 10.01C38.19 9.98 38.23 9.94 38.28 9.90C38.32 9.86 38.37 9.81 38.42 9.77L40.91 7.41C40.99 7.41 41.06 7.39 41.13 7.39C41.20 7.39 41.26 7.38 41.31 7.38L41.41 7.38C41.59 7.36 41.68 7.28 41.68 7.13L41.68 6.85L40.95 6.85L40.67 6.85L39.52 6.85L39.52 7.13C39.52 7.28 39.62 7.36 39.80 7.38C39.82 7.38 39.93 7.38 40.15 7.39L37.74 9.69C37.67 9.76 37.60 9.80 37.55 9.81C37.49 9.83 37.44 9.84 37.37 9.84L37.04 9.84L37.04 3.64L36.37 3.64L35.36 3.64L35.36 3.91C35.36 4.06 35.46 4.14 35.64 4.16L35.71 4.16C35.74 4.16 35.78 4.17 35.83 4.17L36.04 4.17C36.13 4.17 36.25 4.19 36.37 4.19L36.37 13.26C36.22 13.26 36.08 13.29 35.97 13.29L35.73 13.29L35.64 13.29C35.46 13.30 35.36 13.38 35.36 13.54L35.36 13.82L36.37 13.82L37.04 13.82L38.05 13.82L38.05 13.54C38.05 13.38 37.95 13.30 37.77 13.29L37.70 13.29L37.59 13.29C37.55 13.29 37.48 13.27 37.38 13.27C37.28 13.27 37.17 13.26 37.04 13.26L37.04 10.30L37.35 10.30C37.49 10.30 37.59 10.32 37.66 10.35C37.73 10.37 37.80 10.44 37.88 10.53L40.81 13.65C40.87 13.71 40.91 13.75 40.96 13.78C41.02 13.80 41.06 13.82 41.13 13.82L41.17 13.82L41.72 13.82L42.03 13.82L42.03 13.54C42.03 13.38 41.93 13.30 41.75 13.29ZM51.18 4.89C51.24 4.94 51.31 4.98 51.38 5.01C51.45 5.04 51.53 5.07 51.62 5.07C51.70 5.07 51.79 5.04 51.86 5.01C51.93 4.98 52.00 4.94 52.05 4.89C52.11 4.83 52.16 4.76 52.19 4.69C52.22 4.62 52.25 4.54 52.25 4.45C52.25 4.37 52.22 4.30 52.19 4.21C52.16 4.14 52.11 4.07 52.05 4.02C52.00 3.96 51.93 3.91 51.86 3.88C51.79 3.85 51.70 3.84 51.62 3.84C51.53 3.84 51.45 3.85 51.38 3.88C51.31 3.91 51.24 3.96 51.18 4.02C51.13 4.07 51.09 4.14 51.06 4.21C51.03 4.28 51.00 4.37 51.00 4.45C51.00 4.54 51.03 4.62 51.06 4.69C51.09 4.76 51.13 4.83 51.18 4.89ZM52.68 13.29L52.61 13.29L52.50 13.29C52.46 13.29 52.39 13.27 52.29 13.27C52.19 13.27 52.08 13.26 51.95 13.26L51.95 6.85L51.28 6.85L50.27 6.85L50.27 7.13C50.27 7.28 50.37 7.36 50.55 7.38L50.62 7.38C50.65 7.38 50.69 7.39 50.74 7.39L50.95 7.39C51.04 7.39 51.16 7.41 51.28 7.41L51.28 13.26C51.13 13.26 50.99 13.29 50.88 13.29L50.64 13.29L50.55 13.29C50.37 13.30 50.27 13.38 50.27 13.54L50.27 13.82L51.28 13.82L51.95 13.82L52.96 13.82L52.96 13.54C52.96 13.38 52.86 13.30 52.68 13.29ZM68.46 13.29L68.39 13.29L68.28 13.29C68.24 13.29 68.17 13.27 68.07 13.27C67.97 13.27 67.86 13.26 67.73 13.26L67.73 9.37C67.73 8.96 67.68 8.60 67.58 8.27C67.48 7.95 67.34 7.67 67.14 7.45C66.95 7.22 66.71 7.06 66.42 6.93C66.12 6.80 65.79 6.75 65.41 6.75C64.89 6.75 64.41 6.87 63.99 7.11C63.57 7.36 63.21 7.67 62.89 8.08L62.83 7.03C62.82 6.92 62.75 6.86 62.62 6.86L62.26 6.86L61.25 6.86L61.25 7.13C61.25 7.28 61.33 7.36 61.52 7.38L61.60 7.38C61.63 7.38 61.66 7.39 61.70 7.39L61.91 7.39C62.01 7.39 62.13 7.41 62.26 7.41L62.26 13.26C62.09 13.26 61.95 13.29 61.84 13.29L61.61 13.29L61.52 13.29C61.33 13.30 61.25 13.38 61.25 13.54L61.25 13.82L62.26 13.82L62.92 13.82L63.92 13.82L63.92 13.54C63.92 13.38 63.84 13.30 63.66 13.29L63.57 13.29L63.48 13.29C63.43 13.29 63.36 13.27 63.27 13.27C63.17 13.27 63.04 13.26 62.92 13.26L62.92 8.60C63.22 8.19 63.57 7.87 63.97 7.63C64.36 7.39 64.78 7.28 65.24 7.28C65.86 7.28 66.32 7.46 66.61 7.83C66.91 8.20 67.06 8.71 67.06 9.37L67.06 13.82L67.73 13.82L68.74 13.82L68.74 13.54C68.74 13.38 68.64 13.30 68.46 13.29ZM79.66 6.73C79.28 6.73 78.95 6.79 78.64 6.90C78.33 7.01 78.08 7.15 77.85 7.35C77.63 7.55 77.46 7.77 77.35 8.05C77.24 8.33 77.17 8.64 77.17 8.97C77.17 9.39 77.27 9.76 77.45 10.08C77.63 10.40 77.88 10.65 78.22 10.85C78.08 10.92 77.97 11.00 77.85 11.10C77.74 11.20 77.66 11.28 77.59 11.40C77.52 11.51 77.46 11.61 77.42 11.72C77.38 11.83 77.36 11.93 77.36 12.03C77.36 12.29 77.42 12.49 77.56 12.64C77.70 12.80 77.88 12.89 78.12 12.98C77.70 13.12 77.35 13.33 77.11 13.59C76.87 13.86 76.75 14.18 76.75 14.55C76.75 14.80 76.82 15.05 76.94 15.27C77.07 15.50 77.25 15.69 77.50 15.86C77.76 16.03 78.06 16.17 78.43 16.27C78.79 16.37 79.23 16.42 79.72 16.42C80.19 16.42 80.64 16.35 81.03 16.23C81.42 16.10 81.73 15.95 82.01 15.74C82.29 15.53 82.50 15.29 82.64 15.02C82.78 14.76 82.85 14.49 82.85 14.20C82.85 13.89 82.80 13.64 82.66 13.44C82.52 13.24 82.32 13.12 82.10 13.01C81.87 12.89 81.59 12.82 81.30 12.78C81.00 12.74 80.71 12.71 80.40 12.70C80.09 12.68 79.79 12.66 79.49 12.64C79.20 12.63 78.93 12.61 78.71 12.56C78.48 12.50 78.29 12.43 78.15 12.32C78.01 12.21 77.94 12.05 77.94 11.86C77.94 11.72 77.99 11.56 78.11 11.41C78.22 11.26 78.37 11.13 78.57 11.02C78.89 11.14 79.25 11.19 79.66 11.19C80.02 11.19 80.36 11.14 80.67 11.03C80.98 10.92 81.23 10.78 81.45 10.58C81.68 10.39 81.83 10.16 81.96 9.88C82.08 9.60 82.14 9.31 82.14 8.97C82.14 8.72 82.11 8.48 82.04 8.26C81.97 8.04 81.86 7.84 81.73 7.66L82.80 7.57C82.92 7.56 82.99 7.50 82.99 7.39L82.99 7.15L81.20 7.15C80.99 7.01 80.75 6.92 80.50 6.85C80.25 6.78 79.97 6.73 79.66 6.73ZM82.25 14.29C82.25 14.53 82.18 14.74 82.05 14.94C81.93 15.13 81.75 15.33 81.52 15.47C81.30 15.61 81.03 15.72 80.72 15.81C80.42 15.89 80.08 15.92 79.73 15.92C79.35 15.92 79.02 15.88 78.72 15.81C78.43 15.74 78.16 15.62 77.97 15.50C77.77 15.37 77.62 15.22 77.50 15.05C77.39 14.88 77.35 14.69 77.35 14.48C77.35 14.31 77.39 14.17 77.45 14.03C77.50 13.89 77.59 13.76 77.70 13.65C77.81 13.54 77.92 13.43 78.08 13.34C78.23 13.26 78.40 13.17 78.58 13.10C78.82 13.15 79.07 13.17 79.35 13.19C79.63 13.20 79.88 13.22 80.16 13.23C80.44 13.24 80.70 13.26 80.95 13.29C81.20 13.31 81.42 13.38 81.62 13.45C81.82 13.52 81.96 13.62 82.07 13.76C82.18 13.90 82.25 14.07 82.25 14.29ZM79.66 10.74C79.37 10.74 79.11 10.70 78.88 10.61C78.64 10.53 78.44 10.40 78.27 10.25C78.11 10.09 77.99 9.91 77.91 9.70C77.83 9.49 77.78 9.25 77.78 8.99C77.78 8.72 77.83 8.48 77.91 8.26C77.99 8.04 78.11 7.87 78.27 7.71C78.44 7.56 78.64 7.43 78.88 7.35C79.11 7.27 79.37 7.22 79.66 7.22C79.95 7.22 80.22 7.27 80.44 7.35C80.67 7.43 80.86 7.56 81.03 7.71C81.20 7.87 81.33 8.04 81.41 8.26C81.49 8.48 81.54 8.71 81.54 8.97C81.54 9.24 81.49 9.49 81.41 9.70C81.33 9.91 81.20 10.09 81.05 10.25C80.89 10.40 80.70 10.53 80.46 10.61C80.22 10.70 79.95 10.74 79.66 10.74ZM108.14 6.86L107.62 6.86L106.22 6.86L106.22 7.13C106.22 7.28 106.32 7.36 106.50 7.38L106.57 7.38C106.60 7.38 106.62 7.39 106.67 7.39L106.88 7.39C106.97 7.39 107.09 7.41 107.21 7.41L105.07 12.45L104.99 12.66C104.96 12.73 104.94 12.80 104.92 12.87C104.90 12.80 104.86 12.73 104.85 12.66C104.82 12.59 104.80 12.52 104.78 12.45L102.61 7.41C102.76 7.41 102.90 7.39 103.01 7.39C103.12 7.39 103.21 7.38 103.24 7.38L103.32 7.38C103.50 7.36 103.60 7.28 103.60 7.13L103.60 6.86L102.19 6.86L102.19 6.86L101.63 6.86L101.16 6.86L101.16 7.13C101.16 7.28 101.26 7.36 101.44 7.38C101.44 7.38 101.58 7.38 101.86 7.39L104.58 13.57L103.35 16.28L103.82 16.28C103.91 16.28 103.98 16.25 104.02 16.21C104.06 16.17 104.10 16.13 104.13 16.06L107.90 7.39L108.15 7.39C108.23 7.39 108.28 7.38 108.30 7.38L108.37 7.38C108.56 7.36 108.65 7.28 108.65 7.13L108.65 6.86ZM119.53 6.73C119.03 6.73 118.58 6.83 118.19 7.00C117.80 7.17 117.46 7.41 117.18 7.71C116.90 8.02 116.70 8.40 116.56 8.85C116.42 9.30 116.34 9.79 116.34 10.33C116.34 10.88 116.42 11.37 116.56 11.80C116.70 12.24 116.90 12.63 117.18 12.94C117.46 13.24 117.80 13.48 118.19 13.65C118.58 13.82 119.03 13.90 119.53 13.90C120.04 13.90 120.47 13.82 120.86 13.65C121.25 13.48 121.59 13.24 121.86 12.94C122.12 12.63 122.35 12.24 122.49 11.80C122.63 11.37 122.70 10.88 122.70 10.33C122.70 9.79 122.63 9.30 122.49 8.85C122.35 8.40 122.12 8.02 121.86 7.71C121.59 7.41 121.25 7.17 120.86 7.00C120.47 6.83 120.04 6.73 119.53 6.73ZM119.53 13.38C119.11 13.38 118.75 13.31 118.44 13.17C118.13 13.03 117.87 12.82 117.66 12.56C117.45 12.29 117.31 11.97 117.19 11.59C117.08 11.21 117.04 10.79 117.04 10.33C117.04 9.87 117.08 9.45 117.19 9.07C117.31 8.69 117.45 8.37 117.66 8.11C117.87 7.84 118.13 7.62 118.44 7.48C118.75 7.34 119.11 7.27 119.53 7.27C119.95 7.27 120.30 7.34 120.61 7.48C120.92 7.62 121.18 7.84 121.39 8.11C121.60 8.37 121.76 8.69 121.86 9.07C121.95 9.45 122.01 9.87 122.01 10.33C122.01 10.79 121.95 11.21 121.86 11.59C121.76 11.97 121.60 12.29 121.39 12.56C121.18 12.82 120.92 13.03 120.61 13.17C120.30 13.31 119.95 13.38 119.53 13.38ZM137.73 13.29L137.66 13.29L137.55 13.29C137.51 13.29 137.44 13.27 137.34 13.27C137.24 13.27 137.13 13.26 137.00 13.26L137.00 6.85L136.33 6.86L135.32 6.86L135.32 7.13C135.32 7.28 135.42 7.36 135.60 7.38L135.67 7.38C135.70 7.38 135.74 7.39 135.79 7.39L136.00 7.39C136.09 7.39 136.21 7.41 136.33 7.41L136.33 12.08C136.02 12.49 135.66 12.81 135.27 13.05C134.88 13.27 134.46 13.40 134.01 13.40C133.39 13.40 132.93 13.20 132.64 12.84C132.34 12.46 132.19 11.96 132.19 11.30L132.19 6.85L131.52 6.86L130.51 6.86L130.51 7.13C130.51 7.28 130.61 7.36 130.79 7.38L130.86 7.38C130.89 7.38 130.93 7.39 130.97 7.39L131.18 7.39C131.28 7.39 131.39 7.41 131.52 7.41L131.52 11.30C131.52 11.70 131.57 12.07 131.67 12.39C131.77 12.71 131.91 12.99 132.10 13.22C132.30 13.44 132.52 13.62 132.82 13.75C133.11 13.87 133.45 13.93 133.84 13.93C134.36 13.93 134.83 13.80 135.25 13.57C135.67 13.33 136.05 13.01 136.37 12.60L136.43 13.64C136.43 13.76 136.51 13.82 136.64 13.82L137.00 13.82L138.01 13.82L138.01 13.54C138.01 13.38 137.91 13.30 137.73 13.29ZM150.82 6.80C150.64 6.76 150.46 6.73 150.25 6.73C149.70 6.73 149.24 6.89 148.86 7.21C148.48 7.53 148.19 7.98 147.97 8.54L147.91 7.07C147.91 6.99 147.88 6.93 147.85 6.90C147.83 6.87 147.77 6.86 147.69 6.86L147.34 6.86L147.34 6.86L146.33 6.86L146.33 7.13C146.33 7.31 146.43 7.36 146.59 7.38C146.68 7.38 146.76 7.38 147.34 7.41L147.34 13.26C146.76 13.29 146.68 13.29 146.59 13.29C146.43 13.30 146.33 13.36 146.33 13.54L146.33 13.82L147.34 13.82L147.99 13.82L147.99 13.82L149.00 13.82L149.00 13.54C149.00 13.36 148.90 13.30 148.74 13.29C148.65 13.29 148.57 13.29 147.99 13.26L147.99 9.30C148.20 8.68 148.48 8.20 148.82 7.88C149.16 7.56 149.59 7.39 150.12 7.39C150.26 7.39 150.39 7.41 150.50 7.42C150.61 7.43 150.72 7.45 150.79 7.48C150.88 7.50 150.92 7.53 150.98 7.55C151.03 7.56 151.07 7.57 151.10 7.57C151.19 7.57 151.23 7.53 151.24 7.46L151.33 7.00C151.17 6.92 151.00 6.85 150.82 6.80ZM172.17 13.29L172.10 13.29L171.99 13.29C171.95 13.29 171.88 13.27 171.78 13.27C171.68 13.27 171.57 13.26 171.44 13.26L171.44 3.63L170.77 3.63L169.76 3.63L169.76 3.91C169.76 4.06 169.86 4.14 170.04 4.16L170.11 4.16C170.14 4.16 170.18 4.17 170.23 4.17L170.44 4.17C170.53 4.17 170.65 4.19 170.77 4.19L170.77 13.26C170.62 13.26 170.48 13.29 170.37 13.29L170.13 13.29L170.04 13.29C169.86 13.30 169.76 13.38 169.76 13.54L169.76 13.82L170.77 13.82L171.44 13.82L172.45 13.82L172.45 13.54C172.45 13.38 172.35 13.30 172.17 13.29ZM181.59 4.89C181.65 4.94 181.72 4.98 181.79 5.01C181.86 5.04 181.94 5.07 182.03 5.07C182.11 5.07 182.20 5.04 182.27 5.01C182.34 4.98 182.41 4.94 182.46 4.89C182.52 4.83 182.57 4.76 182.60 4.69C182.63 4.62 182.66 4.54 182.66 4.45C182.66 4.37 182.63 4.30 182.60 4.21C182.57 4.14 182.52 4.07 182.46 4.02C182.41 3.96 182.34 3.91 182.27 3.88C182.20 3.85 182.11 3.84 182.03 3.84C181.94 3.84 181.86 3.85 181.79 3.88C181.72 3.91 181.65 3.96 181.59 4.02C181.54 4.07 181.50 4.14 181.47 4.21C181.44 4.28 181.41 4.37 181.41 4.45C181.41 4.54 181.44 4.62 181.47 4.69C181.50 4.76 181.54 4.83 181.59 4.89ZM183.09 13.29L183.02 13.29L182.91 13.29C182.87 13.29 182.80 13.27 182.70 13.27C182.60 13.27 182.49 13.26 182.36 13.26L182.36 6.85L181.69 6.85L180.68 6.85L180.68 7.13C180.68 7.28 180.78 7.36 180.96 7.38L181.03 7.38C181.06 7.38 181.10 7.39 181.15 7.39L181.36 7.39C181.45 7.39 181.57 7.41 181.69 7.41L181.69 13.26C181.54 13.26 181.40 13.29 181.29 13.29L181.05 13.29L180.96 13.29C180.78 13.30 180.68 13.38 180.68 13.54L180.68 13.82L181.69 13.82L182.36 13.82L183.37 13.82L183.37 13.54C183.37 13.38 183.27 13.30 183.09 13.29ZM193.51 5.32C193.59 5.08 193.69 4.90 193.83 4.75C193.97 4.59 194.14 4.48 194.33 4.41C194.53 4.34 194.74 4.31 194.96 4.31C195.10 4.31 195.23 4.33 195.33 4.34C195.43 4.35 195.50 4.35 195.55 4.35C195.64 4.35 195.69 4.33 195.69 4.26L195.71 3.93C195.59 3.89 195.45 3.85 195.31 3.82C195.16 3.79 195.02 3.79 194.88 3.79C194.56 3.79 194.28 3.84 194.01 3.93C193.75 4.03 193.52 4.20 193.34 4.40C193.16 4.59 193.00 4.84 192.91 5.14C192.81 5.43 192.75 5.80 192.75 6.19L192.75 7.07L191.56 7.07L191.56 7.35C191.56 7.46 191.62 7.50 191.76 7.52L192.75 7.59L192.75 13.26C192.58 13.26 192.44 13.27 192.30 13.27C192.16 13.27 192.07 13.29 192.00 13.29L191.87 13.29C191.69 13.30 191.59 13.38 191.59 13.54L191.59 13.82L192.77 13.82L193.41 13.82L194.59 13.82L194.59 13.54C194.59 13.38 194.49 13.30 194.31 13.29L194.18 13.29C194.11 13.29 194.01 13.27 193.87 13.27C193.73 13.27 193.58 13.26 193.41 13.26L193.41 7.57L195.65 7.57L195.65 7.07L193.40 7.07L193.40 6.22C193.40 5.87 193.42 5.56 193.51 5.32ZM206.77 6.73C206.28 6.73 205.83 6.83 205.44 7.00C205.04 7.17 204.72 7.41 204.46 7.71C204.19 8.02 203.98 8.39 203.84 8.81C203.70 9.23 203.62 9.69 203.62 10.19C203.62 10.78 203.70 11.31 203.85 11.77C204.01 12.24 204.22 12.61 204.50 12.94C204.78 13.26 205.11 13.50 205.51 13.66C205.90 13.83 206.33 13.90 206.81 13.90C207.07 13.90 207.34 13.89 207.59 13.83C207.84 13.78 208.10 13.71 208.32 13.62C208.54 13.54 208.75 13.44 208.94 13.31C209.12 13.19 209.27 13.06 209.38 12.92L209.20 12.70C209.17 12.66 209.12 12.63 209.06 12.63C209.02 12.63 208.94 12.66 208.84 12.74C208.74 12.82 208.60 12.91 208.42 13.01C208.25 13.10 208.03 13.17 207.77 13.26C207.52 13.34 207.21 13.38 206.86 13.38C206.47 13.38 206.12 13.31 205.80 13.17C205.48 13.03 205.21 12.84 204.99 12.57C204.76 12.31 204.60 11.97 204.47 11.58C204.34 11.19 204.29 10.71 204.29 10.19L204.29 10.07L209.31 10.07C209.38 10.07 209.43 10.05 209.45 10.01C209.48 9.97 209.51 9.90 209.51 9.80C209.51 9.31 209.44 8.88 209.30 8.50C209.16 8.12 208.98 7.78 208.73 7.53C208.49 7.28 208.19 7.08 207.86 6.94C207.52 6.80 207.16 6.73 206.77 6.73ZM206.78 7.24C207.10 7.24 207.38 7.29 207.65 7.41C207.91 7.52 208.14 7.67 208.32 7.88C208.50 8.09 208.66 8.33 208.75 8.62C208.85 8.92 208.91 9.25 208.91 9.63L204.32 9.63C204.36 9.27 204.44 8.93 204.57 8.64C204.69 8.34 204.86 8.09 205.07 7.88C205.28 7.67 205.53 7.52 205.81 7.41C206.09 7.29 206.42 7.24 206.78 7.24ZM231.10 6.73C230.61 6.73 230.16 6.83 229.77 7.00C229.38 7.17 229.05 7.41 228.79 7.71C228.52 8.02 228.31 8.39 228.17 8.81C228.03 9.23 227.95 9.69 227.95 10.19C227.95 10.78 228.03 11.31 228.19 11.77C228.34 12.24 228.55 12.61 228.83 12.94C229.11 13.26 229.45 13.50 229.84 13.66C230.23 13.83 230.66 13.90 231.14 13.90C231.41 13.90 231.67 13.89 231.92 13.83C232.18 13.78 232.43 13.71 232.65 13.62C232.88 13.54 233.09 13.44 233.27 13.31C233.45 13.19 233.60 13.06 233.72 12.92L233.53 12.70C233.51 12.66 233.45 12.63 233.39 12.63C233.35 12.63 233.27 12.66 233.17 12.74C233.07 12.82 232.93 12.91 232.75 13.01C232.58 13.10 232.36 13.17 232.11 13.26C231.85 13.34 231.55 13.38 231.20 13.38C230.80 13.38 230.45 13.31 230.13 13.17C229.81 13.03 229.54 12.84 229.32 12.57C229.10 12.31 228.93 11.97 228.80 11.58C228.68 11.19 228.62 10.71 228.62 10.19L228.62 10.07L233.65 10.07C233.72 10.07 233.76 10.05 233.79 10.01C233.81 9.97 233.84 9.90 233.84 9.80C233.84 9.31 233.77 8.88 233.63 8.50C233.49 8.12 233.31 7.78 233.06 7.53C232.82 7.28 232.53 7.08 232.19 6.94C231.85 6.80 231.49 6.73 231.10 6.73ZM231.11 7.24C231.43 7.24 231.71 7.29 231.98 7.41C232.25 7.52 232.47 7.67 232.65 7.88C232.83 8.09 232.99 8.33 233.09 8.62C233.18 8.92 233.24 9.25 233.24 9.63L228.65 9.63C228.69 9.27 228.77 8.93 228.90 8.64C229.03 8.34 229.19 8.09 229.40 7.88C229.61 7.67 229.87 7.52 230.15 7.41C230.43 7.29 230.75 7.24 231.11 7.24ZM247.67 13.29L247.58 13.29L247.35 13.29C247.25 13.29 247.14 13.27 247.03 13.27L247.03 9.28C247.03 8.89 246.99 8.55 246.89 8.23C246.79 7.91 246.65 7.64 246.47 7.42C246.29 7.20 246.05 7.03 245.77 6.92C245.49 6.79 245.17 6.73 244.79 6.73C244.29 6.73 243.84 6.83 243.43 7.01C243.03 7.20 242.65 7.48 242.28 7.84L242.40 8.05C242.44 8.13 242.51 8.18 242.61 8.18C242.68 8.18 242.77 8.12 242.87 8.02C242.97 7.92 243.11 7.84 243.28 7.73C243.45 7.62 243.63 7.52 243.87 7.42C244.10 7.32 244.38 7.28 244.72 7.28C245.27 7.28 245.69 7.45 245.97 7.80C246.25 8.15 246.37 8.64 246.37 9.28L246.37 10.01C245.59 10.02 244.92 10.09 244.36 10.21C243.80 10.32 243.33 10.47 242.97 10.65C242.61 10.84 242.35 11.06 242.19 11.31C242.02 11.56 241.93 11.83 241.93 12.12C241.93 12.45 241.99 12.73 242.09 12.95C242.20 13.17 242.34 13.36 242.51 13.50C242.68 13.64 242.89 13.75 243.11 13.82C243.33 13.89 243.56 13.93 243.80 13.93C244.08 13.93 244.34 13.90 244.58 13.85C244.82 13.79 245.03 13.71 245.24 13.61C245.45 13.51 245.64 13.38 245.84 13.23C246.02 13.08 246.20 12.91 246.40 12.73L246.50 13.62C246.53 13.75 246.62 13.82 246.76 13.82L246.78 13.82L247.03 13.82L247.95 13.82L247.95 13.54C247.95 13.38 247.86 13.30 247.67 13.29ZM246.37 12.26C246.20 12.43 246.05 12.60 245.88 12.74C245.71 12.88 245.53 13.01 245.34 13.12C245.14 13.23 244.93 13.30 244.71 13.36C244.48 13.41 244.23 13.44 243.96 13.44C243.78 13.44 243.60 13.43 243.43 13.37C243.26 13.31 243.12 13.24 243.00 13.13C242.87 13.02 242.76 12.88 242.69 12.71C242.61 12.54 242.58 12.35 242.58 12.11C242.58 11.86 242.65 11.63 242.80 11.44C242.96 11.24 243.18 11.09 243.49 10.95C243.80 10.81 244.19 10.70 244.66 10.61C245.14 10.53 245.71 10.47 246.37 10.46ZM260.81 11.06C260.69 10.86 260.55 10.71 260.37 10.57C260.19 10.43 259.98 10.32 259.76 10.23C259.53 10.15 259.28 10.05 259.04 9.98C258.80 9.91 258.57 9.83 258.33 9.76C258.10 9.69 257.89 9.59 257.71 9.49C257.53 9.39 257.39 9.27 257.28 9.13C257.17 8.99 257.11 8.81 257.11 8.58C257.11 8.40 257.14 8.23 257.22 8.08C257.31 7.92 257.42 7.77 257.57 7.64C257.71 7.52 257.89 7.43 258.10 7.36C258.31 7.29 258.54 7.25 258.79 7.25C259.15 7.25 259.52 7.31 259.90 7.43C259.91 7.60 259.92 7.77 259.94 7.92C259.95 8.08 259.95 8.19 259.97 8.27C259.98 8.36 259.98 8.43 259.98 8.44C259.99 8.67 260.09 8.78 260.29 8.78L260.62 8.78L260.62 7.11C259.90 6.86 259.28 6.75 258.78 6.75C258.43 6.75 258.10 6.80 257.82 6.90C257.54 7.00 257.29 7.14 257.10 7.31C256.90 7.48 256.75 7.69 256.63 7.91C256.52 8.13 256.48 8.37 256.48 8.62C256.48 8.92 256.54 9.16 256.65 9.35C256.76 9.55 256.90 9.70 257.08 9.84C257.26 9.98 257.46 10.09 257.70 10.18C257.92 10.26 258.16 10.35 258.41 10.42C258.65 10.49 258.89 10.57 259.13 10.64C259.35 10.71 259.56 10.81 259.74 10.92C259.92 11.03 260.08 11.16 260.19 11.31C260.30 11.47 260.36 11.65 260.36 11.89C260.36 12.10 260.32 12.29 260.25 12.49C260.16 12.68 260.05 12.84 259.90 12.98C259.74 13.12 259.56 13.23 259.34 13.31C259.11 13.40 258.86 13.44 258.57 13.44C258.03 13.44 257.59 13.37 257.21 13.22C257.19 13.03 257.18 12.87 257.17 12.71C257.15 12.56 257.15 12.43 257.14 12.35C257.12 12.26 257.12 12.19 257.12 12.18C257.11 11.96 257.01 11.84 256.82 11.84L256.48 11.84L256.48 13.54C257.15 13.79 257.84 13.93 258.54 13.93C258.93 13.93 259.27 13.87 259.57 13.76C259.88 13.65 260.13 13.50 260.34 13.30C260.55 13.10 260.71 12.89 260.82 12.63C260.93 12.36 260.99 12.08 260.99 11.77C260.99 11.49 260.92 11.26 260.81 11.06ZM270.14 4.89C270.20 4.94 270.27 4.98 270.34 5.01C270.41 5.04 270.49 5.07 270.58 5.07C270.66 5.07 270.75 5.04 270.82 5.01C270.89 4.98 270.96 4.94 271.01 4.89C271.07 4.83 271.12 4.76 271.15 4.69C271.18 4.62 271.21 4.54 271.21 4.45C271.21 4.37 271.18 4.30 271.15 4.21C271.12 4.14 271.07 4.07 271.01 4.02C270.96 3.96 270.89 3.91 270.82 3.88C270.75 3.85 270.66 3.84 270.58 3.84C270.49 3.84 270.41 3.85 270.34 3.88C270.27 3.91 270.20 3.96 270.14 4.02C270.09 4.07 270.05 4.14 270.02 4.21C269.99 4.28 269.96 4.37 269.96 4.45C269.96 4.54 269.99 4.62 270.02 4.69C270.05 4.76 270.09 4.83 270.14 4.89ZM271.64 13.29L271.57 13.29L271.46 13.29C271.42 13.29 271.35 13.27 271.25 13.27C271.15 13.27 271.04 13.26 270.91 13.26L270.91 6.85L270.24 6.85L269.23 6.85L269.23 7.13C269.23 7.28 269.33 7.36 269.51 7.38L269.58 7.38C269.61 7.38 269.65 7.39 269.70 7.39L269.91 7.39C270.00 7.39 270.12 7.41 270.24 7.41L270.24 13.26C270.09 13.26 269.95 13.29 269.84 13.29L269.60 13.29L269.51 13.29C269.33 13.30 269.23 13.38 269.23 13.54L269.23 13.82L270.24 13.82L270.91 13.82L271.92 13.82L271.92 13.54C271.92 13.38 271.82 13.30 271.64 13.29ZM283.16 6.73C282.67 6.73 282.23 6.83 281.83 7.00C281.44 7.17 281.12 7.41 280.85 7.71C280.59 8.02 280.38 8.39 280.24 8.81C280.10 9.23 280.01 9.69 280.01 10.19C280.01 10.78 280.10 11.31 280.25 11.77C280.41 12.24 280.62 12.61 280.90 12.94C281.18 13.26 281.51 13.50 281.90 13.66C282.30 13.83 282.73 13.90 283.21 13.90C283.47 13.90 283.74 13.89 283.99 13.83C284.24 13.78 284.49 13.71 284.72 13.62C284.94 13.54 285.15 13.44 285.33 13.31C285.52 13.19 285.67 13.06 285.78 12.92L285.60 12.70C285.57 12.66 285.52 12.63 285.46 12.63C285.42 12.63 285.33 12.66 285.24 12.74C285.14 12.82 285.00 12.91 284.82 13.01C284.65 13.10 284.42 13.17 284.17 13.26C283.92 13.34 283.61 13.38 283.26 13.38C282.87 13.38 282.52 13.31 282.20 13.17C281.88 13.03 281.61 12.84 281.39 12.57C281.16 12.31 280.99 11.97 280.87 11.58C280.74 11.19 280.69 10.71 280.69 10.19L280.69 10.07L285.71 10.07C285.78 10.07 285.82 10.05 285.85 10.01C285.88 9.97 285.91 9.90 285.91 9.80C285.91 9.31 285.84 8.88 285.70 8.50C285.56 8.12 285.38 7.78 285.12 7.53C284.89 7.28 284.59 7.08 284.26 6.94C283.92 6.80 283.56 6.73 283.16 6.73ZM283.18 7.24C283.50 7.24 283.78 7.29 284.05 7.41C284.31 7.52 284.54 7.67 284.72 7.88C284.90 8.09 285.05 8.33 285.15 8.62C285.25 8.92 285.31 9.25 285.31 9.63L280.71 9.63C280.76 9.27 280.84 8.93 280.97 8.64C281.09 8.34 281.26 8.09 281.47 7.88C281.68 7.67 281.93 7.52 282.21 7.41C282.49 7.29 282.81 7.24 283.18 7.24ZM298.66 6.80C298.48 6.76 298.30 6.73 298.09 6.73C297.54 6.73 297.08 6.89 296.70 7.21C296.32 7.53 296.03 7.98 295.81 8.54L295.75 7.07C295.75 6.99 295.72 6.93 295.69 6.90C295.67 6.87 295.61 6.86 295.53 6.86L295.18 6.86L295.18 6.86L294.17 6.86L294.17 7.13C294.17 7.31 294.27 7.36 294.43 7.38C294.52 7.38 294.60 7.38 295.18 7.41L295.18 13.26C294.60 13.29 294.52 13.29 294.43 13.29C294.27 13.30 294.17 13.36 294.17 13.54L294.17 13.82L295.18 13.82L295.83 13.82L295.83 13.82L296.84 13.82L296.84 13.54C296.84 13.36 296.74 13.30 296.58 13.29C296.49 13.29 296.41 13.29 295.83 13.26L295.83 9.30C296.04 8.68 296.32 8.20 296.66 7.88C297.00 7.56 297.43 7.39 297.96 7.39C298.10 7.39 298.23 7.41 298.34 7.42C298.45 7.43 298.56 7.45 298.63 7.48C298.72 7.50 298.76 7.53 298.82 7.55C298.87 7.56 298.91 7.57 298.94 7.57C299.03 7.57 299.07 7.53 299.08 7.46L299.17 7.00C299.01 6.92 298.84 6.85 298.66 6.80ZM306.66 13.29C306.66 13.47 306.71 13.61 306.84 13.73C306.96 13.86 307.12 13.93 307.30 13.93C307.38 13.93 307.47 13.90 307.55 13.87C307.64 13.85 307.69 13.79 307.75 13.73C307.80 13.68 307.86 13.62 307.89 13.54C307.92 13.45 307.94 13.38 307.94 13.29C307.94 13.20 307.92 13.12 307.89 13.03C307.86 12.95 307.80 12.88 307.75 12.82C307.69 12.77 307.64 12.71 307.55 12.68C307.47 12.66 307.38 12.63 307.30 12.63C307.20 12.63 307.12 12.66 307.03 12.68C306.95 12.71 306.89 12.77 306.84 12.82C306.78 12.88 306.73 12.95 306.70 13.03C306.67 13.12 306.66 13.20 306.66 13.29Z"></path></g></svg>